<?xml version="1.0" encoding="UTF-8"?><svg id="Capa_1" xmlns="http://www.w3.org/2000/svg" viewBox="0 0 800 800"><defs><style>.cls-1{fill:#97f3fe;stroke-width:0px;}.cls-2{fill:#538589;font-family:DIN2014-Demi, 'DIN 2014';font-size:450px;font-weight:300;}</style></defs><path class="cls-1" d="M754.27,89.88l-44.15-44.15c-60.97-60.97-159.84-60.97-220.81,0l-11.55,11.54,264.96,264.96,11.55-11.54c60.97-60.97,60.98-159.83,0-220.81Z"/><path class="cls-1" d="M387.2,147.85c-38.71,38.71-52.81,92.67-42.37,142.53L7.76,672.35c-10.83,12.27-10.25,30.85,1.32,42.42l76.13,76.14c11.57,11.57,30.16,12.15,42.43,1.32l381.97-337.06c49.86,10.44,103.83-3.66,142.53-42.37l47.63-47.63L434.82,100.21l-47.63,47.63Z"/><text class="cls-2" transform="translate(120.88 517.37) rotate(44.43)"><tspan x="0" y="0">1</tspan></text></svg>